ffmpeg started on 2025-06-09 at 17:39:10
Report written to "D:\Convert\FFMetrics\reports\ssim_report-6.txt"
Log level: 32
Command line:
ffmpeg -hide_banner -nostdin -i "G:\\\xc0\xed\xe8\xec\xe5\\\xce\xed\xe3\xee\xe8\xed\xe3\xe8\\!_30_\xc2\xe5\xf1\xed\xe0_2023\\\xd1\xeb\xe8\xf8\xea\xee\xec \xec\xe8\xeb\xfb\xe9 \xea\xf0\xe8\xe7\xe8\xf1\\Kawaisugi_Crisis_[01]_[AniLibria_TV]_[WEBRip_1080p]_HEVC.mkv" -i "G:\\\xc0\xed\xe8\xec\xe5\\\xce\xed\xe3\xee\xe8\xed\xe3\xe8\\!_30_\xc2\xe5\xf1\xed\xe0_2023\\\xd1\xeb\xe8\xf8\xea\xee\xec \xec\xe8\xeb\xfb\xe9 \xea\xf0\xe8\xe7\xe8\xf1\\Kawaisugi_Crisis_[01]_[AniLibria_TV]_[WEBRip_1080p].mkv" -lavfi "[0:v]settb=AVTB,setpts=PTS-STARTPTS,format=pix_fmts=yuv420p10,fps=24000/1001,scale=1920:1080:flags=bicubic[main];[1:v]settb=AVTB,setpts=PTS-STARTPTS,format=pix_fmts=yuv420p,fps=24000/1001,scale=1920:1080:flags=bicubic[ref];[main][ref]ssim=eof_action=endall:stats_file='D\\:/Convert/FFMetrics/logs/ssim_logfile-6.txt'" -f null -
Input #0, matroska,webm, from 'G:\Аниме\Онгоинги\!_30_Весна_2023\Слишком милый кризис\Kawaisugi_Crisis_[01]_[AniLibria_TV]_[WEBRip_1080p]_HEVC.mkv':
  Metadata:
    ENCODER         : Lavf61.7.100
  Duration: 00:23:42.42, start: -0.021000, bitrate: 1058 kb/s
  Stream #0:0(jpn): Video: hevc (Main 10), yuv420p10le(pc, bt709, progressive), 1920x1080 [SAR 1:1 DAR 16:9], 23.98 fps, 23.98 tbr, 1k tbn (default) (forced)
      Metadata:
        ENCODER         : Lavc61.19.100 libx265
        BPS             : 859781
        DURATION        : 00:23:42.379708333
        NUMBER_OF_FRAMES: 34103
        NUMBER_OF_BYTES : 152866859
        _STATISTICS_WRITING_APP: mkvpropedit v66.0.0 ('Josie') 64-bit
        _STATISTICS_WRITING_DATE_UTC: 2025-06-09 12:30:18
        _STATISTICS_TAGS: BPS DURATION NUMBER_OF_FRAMES NUMBER_OF_BYTES
  Stream #0:1(rus): Audio: aac (LC), 48000 Hz, stereo, fltp (default) (forced)
      Metadata:
        title           : AniLibria.TV
        ENCODER         : Lavc61.19.100 aac
        BPS             : 194611
        DURATION        : 00:23:42.399000000
        NUMBER_OF_FRAMES: 66676
        NUMBER_OF_BYTES : 34601917
        _STATISTICS_WRITING_APP: mkvpropedit v66.0.0 ('Josie') 64-bit
        _STATISTICS_WRITING_DATE_UTC: 2025-06-09 12:30:18
        _STATISTICS_TAGS: BPS DURATION NUMBER_OF_FRAMES NUMBER_OF_BYTES
  Stream #0:2(rus): Subtitle: ass (ssa) (default) (forced)
      Metadata:
        title           : Надписи
        BPS             : 0
        DURATION        : 00:00:00.000000000
        NUMBER_OF_FRAMES: 0
        NUMBER_OF_BYTES : 0
        _STATISTICS_WRITING_APP: mkvpropedit v66.0.0 ('Josie') 64-bit
        _STATISTICS_WRITING_DATE_UTC: 2025-06-09 12:30:18
        _STATISTICS_TAGS: BPS DURATION NUMBER_OF_FRAMES NUMBER_OF_BYTES
  Stream #0:3(rus): Subtitle: ass (ssa)
      Metadata:
        title           : Субтитры
        BPS             : 207
        DURATION        : 00:23:38.710000000
        NUMBER_OF_FRAMES: 411
        NUMBER_OF_BYTES : 36845
        _STATISTICS_WRITING_APP: mkvpropedit v66.0.0 ('Josie') 64-bit
        _STATISTICS_WRITING_DATE_UTC: 2025-06-09 12:30:18
        _STATISTICS_TAGS: BPS DURATION NUMBER_OF_FRAMES NUMBER_OF_BYTES
Input #1, matroska,webm, from 'G:\Аниме\Онгоинги\!_30_Весна_2023\Слишком милый кризис\Kawaisugi_Crisis_[01]_[AniLibria_TV]_[WEBRip_1080p].mkv':
  Metadata:
    encoder         : libebml v1.4.2 + libmatroska v1.6.4
    creation_time   : 2025-01-14T16:53:15.000000Z
  Duration: 00:23:42.40, start: 0.000000, bitrate: 1901 kb/s
  Stream #1:0(jpn): Video: h264 (High), yuvj420p(pc, bt709, progressive), 1920x1080 [SAR 1:1 DAR 16:9], 23.98 fps, 23.98 tbr, 1k tbn (default) (forced)
      Metadata:
        BPS             : 1700514
        DURATION        : 00:23:42.380000000
        NUMBER_OF_FRAMES: 34103
        NUMBER_OF_BYTES : 302347298
        _STATISTICS_WRITING_APP: mkvmerge v66.0.0 ('Josie') 64-bit
        _STATISTICS_WRITING_DATE_UTC: 2025-01-14 16:53:15
        _STATISTICS_TAGS: BPS DURATION NUMBER_OF_FRAMES NUMBER_OF_BYTES
  Stream #1:1(rus): Audio: aac (LC), 48000 Hz, stereo, fltp (default) (forced)
      Metadata:
        title           : AniLibria.TV
        BPS             : 192088
        DURATION        : 00:23:42.399000000
        NUMBER_OF_FRAMES: 66675
        NUMBER_OF_BYTES : 34153247
        _STATISTICS_WRITING_APP: mkvmerge v66.0.0 ('Josie') 64-bit
        _STATISTICS_WRITING_DATE_UTC: 2025-01-14 16:53:15
        _STATISTICS_TAGS: BPS DURATION NUMBER_OF_FRAMES NUMBER_OF_BYTES
  Stream #1:2(rus): Subtitle: ass (ssa) (default) (forced)
      Metadata:
        title           : Надписи
        BPS             : 0
        DURATION        : 00:00:00.000000000
        NUMBER_OF_FRAMES: 0
        NUMBER_OF_BYTES : 0
        _STATISTICS_WRITING_APP: mkvmerge v66.0.0 ('Josie') 64-bit
        _STATISTICS_WRITING_DATE_UTC: 2025-01-14 16:53:15
        _STATISTICS_TAGS: BPS DURATION NUMBER_OF_FRAMES NUMBER_OF_BYTES
  Stream #1:3(rus): Subtitle: ass (ssa)
      Metadata:
        title           : Субтитры
        BPS             : 207
        DURATION        : 00:23:38.710000000
        NUMBER_OF_FRAMES: 411
        NUMBER_OF_BYTES : 36845
        _STATISTICS_WRITING_APP: mkvmerge v66.0.0 ('Josie') 64-bit
        _STATISTICS_WRITING_DATE_UTC: 2025-01-14 16:53:15
        _STATISTICS_TAGS: BPS DURATION NUMBER_OF_FRAMES NUMBER_OF_BYTES
  Stream #1:4: Attachment: ttf
      Metadata:
        filename        : ARIAL.TTF
        mimetype        : application/x-truetype-font
  Stream #1:5: Attachment: ttf
      Metadata:
        filename        : tt0142m.ttf
        mimetype        : application/x-truetype-font
Stream mapping:
  Stream #0:0 (hevc) -> settb:default
  Stream #1:0 (h264) -> settb:default
  ssim:default -> Stream #0:0 (wrapped_avframe)
  Stream #0:1 -> #0:1 (aac (native) -> pcm_s16le (native))
[swscaler @ 00000213ec15db80] deprecated pixel format used, make sure you did set range correctly
Output #0, null, to 'pipe:':
  Metadata:
    encoder         : Lavf61.7.100
  Stream #0:0: Video: wrapped_avframe, yuv420p10le(pc, bt709, progressive), 1920x1080 [SAR 1:1 DAR 16:9], q=2-31, 200 kb/s, 23.98 fps, 23.98 tbn
      Metadata:
        encoder         : Lavc61.19.100 wrapped_avframe
  Stream #0:1(rus): Audio: pcm_s16le, 48000 Hz, stereo, s16, 1536 kb/s (default) (forced)
      Metadata:
        title           : AniLibria.TV
        _STATISTICS_TAGS: BPS DURATION NUMBER_OF_FRAMES NUMBER_OF_BYTES
        BPS             : 194611
        DURATION        : 00:23:42.399000000
        NUMBER_OF_FRAMES: 66676
        NUMBER_OF_BYTES : 34601917
        _STATISTICS_WRITING_APP: mkvpropedit v66.0.0 ('Josie') 64-bit
        _STATISTICS_WRITING_DATE_UTC: 2025-06-09 12:30:18
        encoder         : Lavc61.19.100 pcm_s16le
frame=  211 fps=0.0 q=-0.0 size=N/A time=00:00:08.80 bitrate=N/A speed=17.1x    frame=  475 fps=463 q=-0.0 size=N/A time=00:00:19.81 bitrate=N/A speed=19.3x    frame=  725 fps=472 q=-0.0 size=N/A time=00:00:30.23 bitrate=N/A speed=19.7x    frame=  962 fps=467 q=-0.0 size=N/A time=00:00:40.12 bitrate=N/A speed=19.5x    frame= 1164 fps=453 q=-0.0 size=N/A time=00:00:48.54 bitrate=N/A speed=18.9x    frame= 1354 fps=438 q=-0.0 size=N/A time=00:00:56.47 bitrate=N/A speed=18.3x    frame= 1561 fps=434 q=-0.0 size=N/A time=00:01:05.10 bitrate=N/A speed=18.1x    frame= 1794 fps=436 q=-0.0 size=N/A time=00:01:14.82 bitrate=N/A speed=18.2x    frame= 2031 fps=438 q=-0.0 size=N/A time=00:01:24.70 bitrate=N/A speed=18.3x    frame= 2241 fps=435 q=-0.0 size=N/A time=00:01:33.46 bitrate=N/A speed=18.2x    frame= 2484 fps=439 q=-0.0 size=N/A time=00:01:43.60 bitrate=N/A speed=18.3x    frame= 2731 fps=442 q=-0.0 size=N/A time=00:01:53.90 bitrate=N/A speed=18.4x    frame= 2951 fps=440 q=-0.0 size=N/A time=00:02:03.08 bitrate=N/A speed=18.4x    frame= 3191 fps=443 q=-0.0 size=N/A time=00:02:13.09 bitrate=N/A speed=18.5x    frame= 3429 fps=443 q=-0.0 size=N/A time=00:02:23.01 bitrate=N/A speed=18.5x    frame= 3685 fps=447 q=-0.0 size=N/A time=00:02:33.69 bitrate=N/A speed=18.7x    frame= 3924 fps=448 q=-0.0 size=N/A time=00:02:43.66 bitrate=N/A speed=18.7x    frame= 4183 fps=451 q=-0.0 size=N/A time=00:02:54.46 bitrate=N/A speed=18.8x    frame= 4376 fps=447 q=-0.0 size=N/A time=00:03:02.51 bitrate=N/A speed=18.7x    frame= 4583 fps=445 q=-0.0 size=N/A time=00:03:11.14 bitrate=N/A speed=18.5x    frame= 4785 fps=442 q=-0.0 size=N/A time=00:03:19.57 bitrate=N/A speed=18.5x    frame= 4979 fps=439 q=-0.0 size=N/A time=00:03:27.66 bitrate=N/A speed=18.3x    frame= 5222 fps=441 q=-0.0 size=N/A time=00:03:37.80 bitrate=N/A speed=18.4x    frame= 5499 fps=444 q=-0.0 size=N/A time=00:03:49.35 bitrate=N/A speed=18.5x    frame= 5748 fps=446 q=-0.0 size=N/A time=00:03:59.73 bitrate=N/A speed=18.6x    frame= 5998 fps=448 q=-0.0 size=N/A time=00:04:10.16 bitrate=N/A speed=18.7x    frame= 6266 fps=450 q=-0.0 size=N/A time=00:04:21.34 bitrate=N/A speed=18.8x    frame= 6520 fps=452 q=-0.0 size=N/A time=00:04:31.93 bitrate=N/A speed=18.8x    frame= 6759 fps=452 q=-0.0 size=N/A time=00:04:41.90 bitrate=N/A speed=18.9x    frame= 7006 fps=453 q=-0.0 size=N/A time=00:04:52.20 bitrate=N/A speed=18.9x    frame= 7256 fps=454 q=-0.0 size=N/A time=00:05:02.63 bitrate=N/A speed=18.9x    frame= 7477 fps=454 q=-0.0 size=N/A time=00:05:11.85 bitrate=N/A speed=18.9x    frame= 7728 fps=454 q=-0.0 size=N/A time=00:05:22.32 bitrate=N/A speed=18.9x    frame= 7982 fps=456 q=-0.0 size=N/A time=00:05:32.91 bitrate=N/A speed=  19x    frame= 8186 fps=454 q=-0.0 size=N/A time=00:05:41.42 bitrate=N/A speed=18.9x    frame= 8403 fps=453 q=-0.0 size=N/A time=00:05:50.47 bitrate=N/A speed=18.9x    frame= 8659 fps=454 q=-0.0 size=N/A time=00:06:01.15 bitrate=N/A speed=18.9x    frame= 8896 fps=454 q=-0.0 size=N/A time=00:06:11.03 bitrate=N/A speed=18.9x    frame= 9137 fps=455 q=-0.0 size=N/A time=00:06:21.08 bitrate=N/A speed=  19x    frame= 9393 fps=455 q=-0.0 size=N/A time=00:06:31.76 bitrate=N/A speed=  19x    frame= 9642 fps=456 q=-0.0 size=N/A time=00:06:42.15 bitrate=N/A speed=  19x    frame= 9894 fps=457 q=-0.0 size=N/A time=00:06:52.66 bitrate=N/A speed=  19x    frame=10156 fps=458 q=-0.0 size=N/A time=00:07:03.58 bitrate=N/A speed=19.1x    frame=10400 fps=458 q=-0.0 size=N/A time=00:07:13.76 bitrate=N/A speed=19.1x    frame=10655 fps=459 q=-0.0 size=N/A time=00:07:24.40 bitrate=N/A speed=19.1x    frame=10905 fps=460 q=-0.0 size=N/A time=00:07:34.82 bitrate=N/A speed=19.2x    frame=11163 fps=460 q=-0.0 size=N/A time=00:07:45.59 bitrate=N/A speed=19.2x    frame=11370 fps=459 q=-0.0 size=N/A time=00:07:54.22 bitrate=N/A speed=19.2x    frame=11597 fps=459 q=-0.0 size=N/A time=00:08:03.69 bitrate=N/A speed=19.1x    frame=11806 fps=458 q=-0.0 size=N/A time=00:08:12.40 bitrate=N/A speed=19.1x    frame=12043 fps=458 q=-0.0 size=N/A time=00:08:22.29 bitrate=N/A speed=19.1x    frame=12283 fps=458 q=-0.0 size=N/A time=00:08:32.30 bitrate=N/A speed=19.1x    frame=12495 fps=457 q=-0.0 size=N/A time=00:08:41.14 bitrate=N/A speed=19.1x    frame=12729 fps=457 q=-0.0 size=N/A time=00:08:50.90 bitrate=N/A speed=19.1x    frame=12953 fps=457 q=-0.0 size=N/A time=00:09:00.24 bitrate=N/A speed=  19x    frame=13176 fps=456 q=-0.0 size=N/A time=00:09:09.54 bitrate=N/A speed=  19x    frame=13417 fps=456 q=-0.0 size=N/A time=00:09:19.60 bitrate=N/A speed=  19x    frame=13569 fps=454 q=-0.0 size=N/A time=00:09:25.94 bitrate=N/A speed=18.9x    frame=13718 fps=451 q=-0.0 size=N/A time=00:09:32.15 bitrate=N/A speed=18.8x    frame=13957 fps=451 q=-0.0 size=N/A time=00:09:42.12 bitrate=N/A speed=18.8x    frame=14220 fps=452 q=-0.0 size=N/A time=00:09:53.09 bitrate=N/A speed=18.8x    frame=14442 fps=452 q=-0.0 size=N/A time=00:10:02.35 bitrate=N/A speed=18.8x    frame=14635 fps=450 q=-0.0 size=N/A time=00:10:10.40 bitrate=N/A speed=18.8x    frame=14819 fps=449 q=-0.0 size=N/A time=00:10:18.07 bitrate=N/A speed=18.7x    frame=15042 fps=449 q=-0.0 size=N/A time=00:10:27.37 bitrate=N/A speed=18.7x    frame=15272 fps=449 q=-0.0 size=N/A time=00:10:36.96 bitrate=N/A speed=18.7x    frame=15512 fps=449 q=-0.0 size=N/A time=00:10:46.97 bitrate=N/A speed=18.7x    frame=15753 fps=449 q=-0.0 size=N/A time=00:10:57.03 bitrate=N/A speed=18.7x    frame=15967 fps=449 q=-0.0 size=N/A time=00:11:05.95 bitrate=N/A speed=18.7x    frame=16203 fps=449 q=-0.0 size=N/A time=00:11:15.80 bitrate=N/A speed=18.7x    frame=16423 fps=448 q=-0.0 size=N/A time=00:11:24.97 bitrate=N/A speed=18.7x    frame=16665 fps=449 q=-0.0 size=N/A time=00:11:35.06 bitrate=N/A speed=18.7x    frame=16924 fps=450 q=-0.0 size=N/A time=00:11:45.87 bitrate=N/A speed=18.7x    frame=17175 fps=450 q=-0.0 size=N/A time=00:11:56.34 bitrate=N/A speed=18.8x    frame=17420 fps=450 q=-0.0 size=N/A time=00:12:06.55 bitrate=N/A speed=18.8x    frame=17682 fps=451 q=-0.0 size=N/A time=00:12:17.48 bitrate=N/A speed=18.8x    frame=17927 fps=451 q=-0.0 size=N/A time=00:12:27.70 bitrate=N/A speed=18.8x    frame=18181 fps=452 q=-0.0 size=N/A time=00:12:38.29 bitrate=N/A speed=18.9x    frame=18436 fps=453 q=-0.0 size=N/A time=00:12:48.93 bitrate=N/A speed=18.9x    frame=18690 fps=453 q=-0.0 size=N/A time=00:12:59.52 bitrate=N/A speed=18.9x    frame=18944 fps=453 q=-0.0 size=N/A time=00:13:10.12 bitrate=N/A speed=18.9x    frame=19194 fps=454 q=-0.0 size=N/A time=00:13:20.54 bitrate=N/A speed=18.9x    frame=19448 fps=454 q=-0.0 size=N/A time=00:13:31.14 bitrate=N/A speed=18.9x    frame=19669 fps=454 q=-0.0 size=N/A time=00:13:40.36 bitrate=N/A speed=18.9x    frame=19884 fps=454 q=-0.0 size=N/A time=00:13:49.32 bitrate=N/A speed=18.9x    frame=20131 fps=454 q=-0.0 size=N/A time=00:13:59.63 bitrate=N/A speed=18.9x    frame=20373 fps=454 q=-0.0 size=N/A time=00:14:09.72 bitrate=N/A speed=18.9x    frame=20606 fps=454 q=-0.0 size=N/A time=00:14:19.44 bitrate=N/A speed=18.9x    frame=20864 fps=455 q=-0.0 size=N/A time=00:14:30.20 bitrate=N/A speed=  19x    frame=21110 fps=455 q=-0.0 size=N/A time=00:14:40.46 bitrate=N/A speed=  19x    frame=21376 fps=455 q=-0.0 size=N/A time=00:14:51.55 bitrate=N/A speed=  19x    frame=21589 fps=455 q=-0.0 size=N/A time=00:15:00.44 bitrate=N/A speed=  19x    frame=21844 fps=455 q=-0.0 size=N/A time=00:15:11.07 bitrate=N/A speed=  19x    frame=22080 fps=455 q=-0.0 size=N/A time=00:15:20.92 bitrate=N/A speed=  19x    frame=22287 fps=455 q=-0.0 size=N/A time=00:15:29.55 bitrate=N/A speed=  19x    frame=22523 fps=455 q=-0.0 size=N/A time=00:15:39.39 bitrate=N/A speed=  19x    frame=22711 fps=454 q=-0.0 size=N/A time=00:15:47.23 bitrate=N/A speed=18.9x    frame=22966 fps=454 q=-0.0 size=N/A time=00:15:57.87 bitrate=N/A speed=  19x    frame=23224 fps=455 q=-0.0 size=N/A time=00:16:08.63 bitrate=N/A speed=  19x    frame=23485 fps=455 q=-0.0 size=N/A time=00:16:19.52 bitrate=N/A speed=  19x    frame=23725 fps=456 q=-0.0 size=N/A time=00:16:29.53 bitrate=N/A speed=  19x    frame=23965 fps=456 q=-0.0 size=N/A time=00:16:39.54 bitrate=N/A speed=  19x    frame=24188 fps=455 q=-0.0 size=N/A time=00:16:48.84 bitrate=N/A speed=  19x    frame=24404 fps=455 q=-0.0 size=N/A time=00:16:57.85 bitrate=N/A speed=  19x    frame=24614 fps=455 q=-0.0 size=N/A time=00:17:06.60 bitrate=N/A speed=  19x    frame=24855 fps=455 q=-0.0 size=N/A time=00:17:16.66 bitrate=N/A speed=  19x    frame=25080 fps=455 q=-0.0 size=N/A time=00:17:26.04 bitrate=N/A speed=  19x    frame=25300 fps=454 q=-0.0 size=N/A time=00:17:35.22 bitrate=N/A speed=18.9x    frame=25535 fps=454 q=-0.0 size=N/A time=00:17:45.02 bitrate=N/A speed=18.9x    frame=25787 fps=455 q=-0.0 size=N/A time=00:17:55.53 bitrate=N/A speed=  19x    frame=26027 fps=455 q=-0.0 size=N/A time=00:18:05.54 bitrate=N/A speed=  19x    frame=26256 fps=455 q=-0.0 size=N/A time=00:18:15.09 bitrate=N/A speed=  19x    frame=26484 fps=454 q=-0.0 size=N/A time=00:18:24.60 bitrate=N/A speed=  19x    frame=26724 fps=455 q=-0.0 size=N/A time=00:18:34.61 bitrate=N/A speed=  19x    frame=26940 fps=454 q=-0.0 size=N/A time=00:18:43.62 bitrate=N/A speed=18.9x    frame=27148 fps=454 q=-0.0 size=N/A time=00:18:52.29 bitrate=N/A speed=18.9x    frame=27358 fps=453 q=-0.0 size=N/A time=00:19:01.05 bitrate=N/A speed=18.9x    frame=27588 fps=453 q=-0.0 size=N/A time=00:19:10.64 bitrate=N/A speed=18.9x    frame=27834 fps=454 q=-0.0 size=N/A time=00:19:20.90 bitrate=N/A speed=18.9x    frame=28068 fps=454 q=-0.0 size=N/A time=00:19:30.66 bitrate=N/A speed=18.9x    frame=28314 fps=454 q=-0.0 size=N/A time=00:19:40.92 bitrate=N/A speed=18.9x    frame=28561 fps=454 q=-0.0 size=N/A time=00:19:51.23 bitrate=N/A speed=18.9x    frame=28809 fps=454 q=-0.0 size=N/A time=00:20:01.57 bitrate=N/A speed=18.9x    frame=29061 fps=454 q=-0.0 size=N/A time=00:20:12.08 bitrate=N/A speed=  19x    frame=29307 fps=455 q=-0.0 size=N/A time=00:20:22.34 bitrate=N/A speed=  19x    frame=29561 fps=455 q=-0.0 size=N/A time=00:20:32.94 bitrate=N/A speed=  19x    frame=29818 fps=455 q=-0.0 size=N/A time=00:20:43.65 bitrate=N/A speed=  19x    frame=30072 fps=456 q=-0.0 size=N/A time=00:20:54.25 bitrate=N/A speed=  19x    frame=30336 fps=456 q=-0.0 size=N/A time=00:21:05.26 bitrate=N/A speed=  19x    frame=30577 fps=456 q=-0.0 size=N/A time=00:21:15.31 bitrate=N/A speed=  19x    frame=30813 fps=456 q=-0.0 size=N/A time=00:21:25.15 bitrate=N/A speed=  19x    frame=31033 fps=456 q=-0.0 size=N/A time=00:21:34.33 bitrate=N/A speed=  19x    frame=31267 fps=456 q=-0.0 size=N/A time=00:21:44.09 bitrate=N/A speed=  19x    frame=31517 fps=456 q=-0.0 size=N/A time=00:21:54.52 bitrate=N/A speed=  19x    frame=31709 fps=455 q=-0.0 size=N/A time=00:22:02.52 bitrate=N/A speed=  19x    frame=31922 fps=455 q=-0.0 size=N/A time=00:22:11.41 bitrate=N/A speed=  19x    frame=32086 fps=454 q=-0.0 size=N/A time=00:22:18.25 bitrate=N/A speed=18.9x    frame=32255 fps=453 q=-0.0 size=N/A time=00:22:25.30 bitrate=N/A speed=18.9x    frame=32410 fps=452 q=-0.0 size=N/A time=00:22:31.76 bitrate=N/A speed=18.9x    frame=32572 fps=451 q=-0.0 size=N/A time=00:22:38.52 bitrate=N/A speed=18.8x    frame=32722 fps=450 q=-0.0 size=N/A time=00:22:44.78 bitrate=N/A speed=18.8x    frame=32875 fps=449 q=-0.0 size=N/A time=00:22:51.16 bitrate=N/A speed=18.7x    frame=33043 fps=448 q=-0.0 size=N/A time=00:22:58.16 bitrate=N/A speed=18.7x    frame=33226 fps=447 q=-0.0 size=N/A time=00:23:05.80 bitrate=N/A speed=18.7x    frame=33419 fps=447 q=-0.0 size=N/A time=00:23:13.85 bitrate=N/A speed=18.6x    frame=33657 fps=447 q=-0.0 size=N/A time=00:23:23.77 bitrate=N/A speed=18.6x    frame=33878 fps=447 q=-0.0 size=N/A time=00:23:32.99 bitrate=N/A speed=18.6x    [Parsed_ssim_10 @ 00000213eb24c480] SSIM Y:0.993910 (22.153766) U:0.995917 (23.890516) V:0.995917 (23.890559) All:0.994579 (22.659243)
[out#0/null @ 00000213d5991e00] video:14653KiB audio:266704KiB subtitle:0KiB other streams:0KiB global headers:0KiB muxing overhead: unknown
frame=34102 fps=447 q=-0.0 Lsize=N/A time=00:23:42.33 bitrate=N/A speed=18.6x    
